<svg xmlns="http://www.w3.org/2000/svg" xmlns:xlink="http://www.w3.org/1999/xlink" width="31" height="31" viewBox="0 0 31 31">
  <defs>
    <clipPath id="clip-path">
      <rect id="Base" width="31" height="31" transform="translate(168.952 632.953)" fill="none" stroke="#f76215" stroke-width="1"/>
    </clipPath>
  </defs>
  <g id="colling" transform="translate(-168.952 -632.953)" clip-path="url(#clip-path)">
    <path id="call-outline" d="M33.253,27.863a25.7,25.7,0,0,0-5.111-3.414c-1.7-.857-1.842-.927-3.179.067-.892.663-1.485,1.255-2.529,1.033a13.546,13.546,0,0,1-5.3-3.458A14,14,0,0,1,13.6,16.734c-.223-1.041.379-1.627,1.036-2.521.926-1.26.856-1.47.064-3.172a23.27,23.27,0,0,0-3.424-5.1c-1.2-1.188-1.2-.978-1.978-.656a11.214,11.214,0,0,0-1.809.964A5.419,5.419,0,0,0,5.309,8.544c-.435.929-.63,3.108,1.615,7.187a35.6,35.6,0,0,0,7.082,9.417A38.749,38.749,0,0,0,23.44,32.2c4.535,2.54,6.274,2.045,7.206,1.61a5.4,5.4,0,0,0,2.3-2.171,11.14,11.14,0,0,0,.966-1.807C34.234,29.065,34.444,29.065,33.253,27.863Z" transform="translate(164.906 628.833)" fill="#f76215"/>
  </g>
</svg>
