<svg xmlns="http://www.w3.org/2000/svg" xmlns:xlink="http://www.w3.org/1999/xlink" width="22" height="25" viewBox="0 0 22 25">
  <defs>
    <clipPath id="clip-path">
      <rect id="Rectangle_26" data-name="Rectangle 26" width="22" height="25" transform="translate(317 755)" fill="#611515"/>
    </clipPath>
  </defs>
  <g id="Record_Off" data-name="Record Off" transform="translate(-317 -755)" clip-path="url(#clip-path)">
    <g id="mic-off-outline" transform="translate(312.766 752.919)">
      <line id="Line_15" data-name="Line 15" x1="19.389" y1="19.389" transform="translate(5.54 3.693)" fill="none" stroke="#f76215" stroke-linecap="round" stroke-miterlimit="10" stroke-width="1.847"/>
      <path id="Path_10260" data-name="Path 10260" d="M23.082,13.849V12.028a.941.941,0,0,0-.879-.948.923.923,0,0,0-.968.922v1.847a6.439,6.439,0,0,1-.141,1.345.234.234,0,0,0,.062.213l1.259,1.259a.115.115,0,0,0,.19-.042A8.267,8.267,0,0,0,23.082,13.849Z" fill="#f76215"/>
      <path id="Path_10261" data-name="Path 10261" d="M14.772,20.312a6.484,6.484,0,0,1-6.463-6.463V12.028a.941.941,0,0,0-.879-.948A.923.923,0,0,0,6.463,12v1.847a8.321,8.321,0,0,0,7.386,8.258v2.821H11.105a.941.941,0,0,0-.948.879.923.923,0,0,0,.922.968h7.36a.941.941,0,0,0,.948-.879.923.923,0,0,0-.922-.968H15.7V22.107a8.256,8.256,0,0,0,3-.936.231.231,0,0,0,.053-.366l-1.033-1.033a.231.231,0,0,0-.26-.045,6.393,6.393,0,0,1-2.683.586Z" fill="#f76215"/>
      <path id="Path_10262" data-name="Path 10262" d="M14.772,4.616a2.722,2.722,0,0,1,2.77,2.77V11.7a.231.231,0,0,0,.068.163l1.582,1.585a.115.115,0,0,0,.2-.082V7.439A4.65,4.65,0,0,0,14.838,2.77a4.6,4.6,0,0,0-3.951,2.11.231.231,0,0,0,.031.289L12.046,6.3a.115.115,0,0,0,.188-.036,2.737,2.737,0,0,1,2.539-1.643Z" fill="#f76215"/>
      <path id="Path_10263" data-name="Path 10263" d="M11.96,14.016l-1.608-1.61a.115.115,0,0,0-.2.082v1.3a4.668,4.668,0,0,0,1.353,3.283A4.533,4.533,0,0,0,16,18.3a.115.115,0,0,0,.05-.193l-1.437-1.437a.235.235,0,0,0-.14-.066,2.851,2.851,0,0,1-2.445-2.448A.231.231,0,0,0,11.96,14.016Z" fill="#f76215"/>
    </g>
  </g>
</svg>
