<svg xmlns="http://www.w3.org/2000/svg" xmlns:xlink="http://www.w3.org/1999/xlink" width="25" height="22" viewBox="0 0 25 22">
  <defs>
    <clipPath id="clip-path">
      <rect id="Rectangle_25" data-name="Rectangle 25" width="25" height="22" transform="translate(325 588)" fill="#f76215"/>
    </clipPath>
  </defs>
  <g id="Sound_off" data-name="Sound off" transform="translate(-325 -588)" clip-path="url(#clip-path)">
    <g id="volume-mute-outline" transform="translate(323.323 584.823)">
      <line id="Line_14" data-name="Line 14" x1="19.494" y1="19.494" transform="translate(3.544 4.43)" fill="none" stroke="#f76215" stroke-linecap="round" stroke-miterlimit="10" stroke-width="1.772"/>
      <path id="Path_10255" data-name="Path 10255" d="M12.405,7.583V9.454a.222.222,0,0,0,.065.156L13.8,10.94a.222.222,0,0,0,.378-.156V6.677a1.358,1.358,0,0,0-.7-1.2,1.324,1.324,0,0,0-1.415.1l-.037.028L10.255,7.052a.222.222,0,0,0-.016.328l.944.945a.222.222,0,0,0,.3.014Z" fill="#f76215"/>
      <path id="Path_10256" data-name="Path 10256" d="M12.405,20.772l-4.324-3.54a1.772,1.772,0,0,0-1.123-.4H3.544V11.519H6.353a.222.222,0,0,0,.156-.378L5.18,9.812a.222.222,0,0,0-.156-.065H3.1a1.329,1.329,0,0,0-1.329,1.329v6.2A1.329,1.329,0,0,0,3.1,18.608H6.965l5.06,4.142.037.028a1.325,1.325,0,0,0,1.432.094,1.356,1.356,0,0,0,.685-1.193V18.9a.222.222,0,0,0-.065-.156l-1.329-1.329a.222.222,0,0,0-.378.156ZM6.968,18.608Z" fill="#f76215"/>
      <path id="Path_10257" data-name="Path 10257" d="M19.494,14.177a8.511,8.511,0,0,0-.983-3.947.886.886,0,1,0-1.578.805,6.78,6.78,0,0,1,.789,3.142q0,.222-.017.45a.443.443,0,0,0,.128.346l1.089,1.089a.222.222,0,0,0,.374-.111,8.135,8.135,0,0,0,.2-1.775Z" fill="#f76215"/>
      <path id="Path_10258" data-name="Path 10258" d="M23.038,14.177a12.009,12.009,0,0,0-1.893-6.649.886.886,0,1,0-1.531.893,10.286,10.286,0,0,1,1.652,5.756,10.061,10.061,0,0,1-.519,3.359.443.443,0,0,0,.105.457l.929.928a.222.222,0,0,0,.361-.07A11.578,11.578,0,0,0,23.038,14.177Z" fill="#f76215"/>
      <path id="Path_10259" data-name="Path 10259" d="M26.582,14.177a15.877,15.877,0,0,0-2.8-9.338.887.887,0,0,0-1.5.954,14.254,14.254,0,0,1,2.52,8.384A13.931,13.931,0,0,1,23.5,20.435a.222.222,0,0,0,.043.252l.987.988a.222.222,0,0,0,.354-.055A15.542,15.542,0,0,0,26.582,14.177Z" fill="#f76215"/>
    </g>
  </g>
</svg>
